<svg width="24" height="24" viewBox="0 0 24 24" fill="none" xmlns="http://www.w3.org/2000/svg">
<path fill-rule="evenodd" clip-rule="evenodd" d="M12.1035 23.2114C13.5809 23.2114 15.0438 22.9204 16.4087 22.3551C17.7736 21.7897 19.0138 20.961 20.0585 19.9164C21.1031 18.8717 21.9318 17.6315 22.4972 16.2666C23.0625 14.9017 23.3535 13.4388 23.3535 11.9614C23.3535 10.4841 23.0625 9.02115 22.4972 7.65624C21.9318 6.29132 21.1031 5.05113 20.0585 4.00647C19.0138 2.96182 17.7736 2.13315 16.4087 1.56778C15.0438 1.00242 13.5809 0.711426 12.1035 0.711426C9.11983 0.711426 6.25835 1.89669 4.14856 4.00647C2.03878 6.11626 0.853516 8.97774 0.853516 11.9614C0.853516 14.9451 2.03878 17.8066 4.14856 19.9164C6.25835 22.0262 9.11983 23.2114 12.1035 23.2114ZM11.8135 16.5114L18.0635 9.01143L16.1435 7.41143L10.7685 13.8602L7.98727 11.0777L6.21977 12.8452L9.96977 16.5952L10.9373 17.5627L11.8135 16.5114Z" fill="url(#paint0_linear_250_261)"/>
<defs>
<linearGradient id="paint0_linear_250_261" x1="-1.4408" y1="11.9614" x2="32.8085" y2="12.3666" gradientUnits="userSpaceOnUse">
<stop stop-color="#26D0CE"/>
<stop offset="1" stop-color="#1A2980"/>
</linearGradient>
</defs>
</svg>
