<svg width="87" height="87" viewBox="0 0 87 87" fill="none" xmlns="http://www.w3.org/2000/svg">
<path d="M36.3334 22V18.4167H50.6667V22H57.8334V18.4167C57.8334 16.5159 57.0783 14.6931 55.7343 13.3491C54.3903 12.0051 52.5674 11.25 50.6667 11.25H36.3334C34.4326 11.25 32.6098 12.0051 31.2658 13.3491C29.9217 14.6931 29.1667 16.5159 29.1667 18.4167V22H36.3334Z" fill="url(#paint0_linear_26_2)"/>
<path opacity="0.25" d="M32.75 54.25C31.7997 54.25 30.8882 53.8725 30.2162 53.2005C29.5442 52.5285 29.1667 51.617 29.1667 50.6667V43.5C29.1667 42.5496 29.5442 41.6382 30.2162 40.9662C30.8882 40.2942 31.7997 39.9167 32.75 39.9167C33.7004 39.9167 34.6118 40.2942 35.2838 40.9662C35.9558 41.6382 36.3334 42.5496 36.3334 43.5V50.6667C36.3334 51.617 35.9558 52.5285 35.2838 53.2005C34.6118 53.8725 33.7004 54.25 32.75 54.25ZM54.25 54.25C53.2997 54.25 52.3882 53.8725 51.7162 53.2005C51.0442 52.5285 50.6667 51.617 50.6667 50.6667V43.5C50.6667 42.5496 51.0442 41.6382 51.7162 40.9662C52.3882 40.2942 53.2997 39.9167 54.25 39.9167C55.2004 39.9167 56.1118 40.2942 56.7838 40.9662C57.4558 41.6382 57.8334 42.5496 57.8334 43.5V50.6667C57.8334 51.617 57.4558 52.5285 56.7838 53.2005C56.1118 53.8725 55.2004 54.25 54.25 54.25Z" fill="url(#paint1_linear_26_2)"/>
<path opacity="0.5" d="M72.1667 22H14.8334C12.9326 22 11.1098 22.7551 9.76575 24.0991C8.42174 25.4431 7.66669 27.2659 7.66669 29.1667V39.9167C7.66669 41.8174 8.42174 43.6403 9.76575 44.9843C11.1098 46.3283 12.9326 47.0833 14.8334 47.0833H29.1667V43.5C29.1667 42.5496 29.5442 41.6382 30.2162 40.9662C30.8882 40.2942 31.7997 39.9167 32.75 39.9167C33.7004 39.9167 34.6118 40.2942 35.2838 40.9662C35.9558 41.6382 36.3334 42.5496 36.3334 43.5V47.0833H50.6667V43.5C50.6667 42.5496 51.0442 41.6382 51.7162 40.9662C52.3882 40.2942 53.2997 39.9167 54.25 39.9167C55.2004 39.9167 56.1118 40.2942 56.7838 40.9662C57.4558 41.6382 57.8334 42.5496 57.8334 43.5V47.0833H72.1667C74.0674 47.0833 75.8903 46.3283 77.2343 44.9843C78.5783 43.6403 79.3334 41.8174 79.3334 39.9167V29.1667C79.3334 27.2659 78.5783 25.4431 77.2343 24.0991C75.8903 22.7551 74.0674 22 72.1667 22Z" fill="url(#paint2_linear_26_2)"/>
<path d="M72.1667 47.0833H57.8334V50.6667C57.8334 51.617 57.4558 52.5284 56.7838 53.2005C56.1118 53.8725 55.2004 54.25 54.25 54.25C53.2997 54.25 52.3882 53.8725 51.7162 53.2005C51.0442 52.5284 50.6667 51.617 50.6667 50.6667V47.0833H36.3334V50.6667C36.3334 51.617 35.9558 52.5284 35.2838 53.2005C34.6118 53.8725 33.7004 54.25 32.75 54.25C31.7997 54.25 30.8882 53.8725 30.2162 53.2005C29.5442 52.5284 29.1667 51.617 29.1667 50.6667V47.0833H14.8334C12.9326 47.0833 11.1098 46.3283 9.76575 44.9843C8.42174 43.6402 7.66669 41.8174 7.66669 39.9167V68.5833C7.66669 70.484 8.42174 72.3069 9.76575 73.6509C11.1098 74.9949 12.9326 75.75 14.8334 75.75H72.1667C74.0674 75.75 75.8903 74.9949 77.2343 73.6509C78.5783 72.3069 79.3334 70.484 79.3334 68.5833V39.9167C79.3334 41.8174 78.5783 43.6402 77.2343 44.9843C75.8903 46.3283 74.0674 47.0833 72.1667 47.0833Z" fill="url(#paint3_linear_26_2)"/>
<defs>
<linearGradient id="paint0_linear_26_2" x1="26.2436" y1="16.625" x2="69.8424" y2="18.0003" gradientUnits="userSpaceOnUse">
<stop stop-color="#26D0CE"/>
<stop offset="1" stop-color="#1A2980"/>
</linearGradient>
<linearGradient id="paint1_linear_26_2" x1="26.2436" y1="47.0833" x2="69.8614" y2="48.1153" gradientUnits="userSpaceOnUse">
<stop stop-color="#26D0CE"/>
<stop offset="1" stop-color="#1A2980"/>
</linearGradient>
<linearGradient id="paint2_linear_26_2" x1="0.358857" y1="34.5417" x2="109.34" y2="38.225" gradientUnits="userSpaceOnUse">
<stop stop-color="#26D0CE"/>
<stop offset="1" stop-color="#1A2980"/>
</linearGradient>
<linearGradient id="paint3_linear_26_2" x1="0.358857" y1="57.8333" x2="109.403" y2="60.4131" gradientUnits="userSpaceOnUse">
<stop stop-color="#26D0CE"/>
<stop offset="1" stop-color="#1A2980"/>
</linearGradient>
</defs>
</svg>
