<svg width="87" height="86" viewBox="0 0 87 86" fill="none" xmlns="http://www.w3.org/2000/svg">
<path d="M43.12 32.25C40.269 32.25 37.5347 33.3826 35.5186 35.3986C33.5026 37.4146 32.37 40.1489 32.37 43C32.37 45.8511 33.5026 48.5854 35.5186 50.6014C37.5347 52.6174 40.269 53.75 43.12 53.75C45.9711 53.75 48.7054 52.6174 50.7214 50.6014C52.7375 48.5854 53.87 45.8511 53.87 43C53.87 40.1489 52.7375 37.4146 50.7214 35.3986C48.7054 33.3826 45.9711 32.25 43.12 32.25ZM43.12 60.9167C38.3682 60.9167 33.8111 59.029 30.451 55.669C27.091 52.309 25.2034 47.7518 25.2034 43C25.2034 38.2482 27.091 33.691 30.451 30.331C33.8111 26.971 38.3682 25.0833 43.12 25.0833C47.8718 25.0833 52.429 26.971 55.789 30.331C59.1491 33.691 61.0367 38.2482 61.0367 43C61.0367 47.7518 59.1491 52.309 55.789 55.669C52.429 59.029 47.8718 60.9167 43.12 60.9167ZM43.12 16.125C25.2034 16.125 9.90254 27.2692 3.70337 43C9.90254 58.7308 25.2034 69.875 43.12 69.875C61.0367 69.875 76.3375 58.7308 82.5367 43C76.3375 27.2692 61.0367 16.125 43.12 16.125Z" fill="url(#paint0_linear_263_272)"/>
<defs>
<linearGradient id="paint0_linear_263_272" x1="-4.33524" y1="43" x2="115.645" y2="45.0816" gradientUnits="userSpaceOnUse">
<stop stop-color="#26D0CE"/>
<stop offset="1" stop-color="#1A2980"/>
</linearGradient>
</defs>
</svg>
