<svg width="87" height="87" viewBox="0 0 87 87" fill="none" xmlns="http://www.w3.org/2000/svg">
<path d="M56.9376 43.5C53.4841 43.5 50.1449 41.958 47.5313 39.1597C44.9899 36.4302 43.4379 32.7903 43.1641 28.9136C42.8719 24.7782 44.1333 20.9754 46.715 18.2039C49.2967 15.4324 52.9063 13.9375 56.9376 13.9375C60.9403 13.9375 64.56 15.4593 67.1333 18.2241C69.7318 21.0157 70.9966 24.8118 70.7043 28.9119C70.4238 32.7937 68.8734 36.4319 66.3371 39.158C63.7302 41.958 60.3927 43.5 56.9376 43.5ZM79.0809 73.0625H34.7959C34.0839 73.0663 33.3805 72.9067 32.7399 72.596C32.0993 72.2853 31.5384 71.8317 31.1006 71.2702C30.6362 70.6616 30.3155 69.9557 30.1625 69.2055C30.0094 68.4553 30.0281 67.6803 30.2171 66.9383C31.6314 61.2593 35.1352 56.5495 40.349 53.3194C44.9765 50.4539 50.8672 48.875 56.9376 48.875C63.1272 48.875 68.8633 50.3867 73.5178 53.2506C78.7433 56.4638 82.2521 61.2005 83.6597 66.9484C83.8464 67.6909 83.863 68.4659 83.7083 69.2157C83.5535 69.9655 83.2315 70.6707 82.7661 71.2786C82.3287 71.8375 81.7692 72.2888 81.1304 72.598C80.4917 72.9072 79.7906 73.0661 79.0809 73.0625ZM25.1915 44.1719C19.2806 44.1719 14.0837 38.6759 13.6016 31.9219C13.3631 28.4618 14.4415 25.2619 16.6251 22.9154C18.7851 20.5924 21.8321 19.3125 25.1915 19.3125C28.5508 19.3125 31.5743 20.5991 33.7461 22.9356C35.9465 25.3006 37.0215 28.4937 36.7696 31.9253C36.2875 38.6776 31.0922 44.1719 25.1915 44.1719ZM36.2203 49.4545C33.2657 48.0099 29.431 47.2877 25.1931 47.2877C20.2448 47.2877 15.4392 48.5777 11.6599 50.9192C7.37502 53.5781 4.49267 57.4498 3.32865 62.1243C3.1583 62.7967 3.14219 63.4989 3.28152 64.1784C3.42084 64.8578 3.712 65.497 4.13322 66.0481C4.5329 66.5612 5.04493 66.9758 5.62993 67.26C6.21494 67.5442 6.85733 67.6904 7.50771 67.6875H26.1522C26.4669 67.6874 26.7716 67.5769 27.0132 67.3753C27.2548 67.1736 27.4179 66.8935 27.4742 66.5839C27.4926 66.4781 27.5162 66.3723 27.543 66.2681C28.9674 60.5471 32.3049 55.713 37.2365 52.189C37.4179 52.0583 37.5638 51.8843 37.661 51.6829C37.7581 51.4816 37.8035 51.2591 37.793 51.0358C37.7825 50.8124 37.7164 50.5952 37.6008 50.4039C37.4851 50.2125 37.3235 50.053 37.1307 49.9399C36.867 49.7854 36.5646 49.6224 36.2203 49.4545Z" fill="url(#paint0_linear_26_9)"/>
<defs>
<linearGradient id="paint0_linear_26_9" x1="-5.03361" y1="43.5" x2="117.679" y2="45.4795" gradientUnits="userSpaceOnUse">
<stop stop-color="#26D0CE"/>
<stop offset="1" stop-color="#1A2980"/>
</linearGradient>
</defs>
</svg>
