<svg width="87" height="69" viewBox="0 0 87 69" fill="none" xmlns="http://www.w3.org/2000/svg">
<g clip-path="url(#clip0_26_7)">
<path d="M43.9569 11.5512L30.9494 22.0862C28.7859 23.8331 28.3694 26.9775 30.0088 29.2215C31.7422 31.6134 35.115 32.0837 37.4397 30.2697L50.7831 19.8959C51.7238 19.1703 53.0675 19.3315 53.8066 20.2722C54.5456 21.2128 54.3709 22.5565 53.4303 23.2956L50.6219 25.4725L69.3 42.6725V17.3025H69.2059L68.6819 16.9665L58.9263 10.7181C56.8703 9.40123 54.465 8.70248 52.0194 8.70248C49.09 8.70248 46.2413 9.7103 43.9569 11.5512ZM47.0206 28.2675L40.0734 33.6693C35.8406 36.975 29.6997 36.115 26.5284 31.7612C23.5453 27.6628 24.2978 21.9384 28.235 18.7537L39.415 9.7103C37.8563 9.05186 36.1766 8.71592 34.47 8.71592C31.9438 8.70248 29.4847 9.45498 27.375 10.8525L17.7 17.3025V47.4025H21.4894L33.7713 58.6093C36.405 61.0146 40.4766 60.8265 42.8819 58.1928C43.6209 57.3731 44.1181 56.419 44.3734 55.4247L46.6578 57.5209C49.2781 59.9262 53.3631 59.7515 55.7684 57.1312C56.3731 56.4728 56.8166 55.7068 57.0988 54.914C59.7056 56.6609 63.2531 56.2981 65.4434 53.9062C67.8488 51.2859 67.6741 47.2009 65.0537 44.7956L47.0206 28.2675ZM2.65 17.3025C1.4675 17.3025 0.5 18.27 0.5 19.4525V47.4025C0.5 49.7809 2.42156 51.7025 4.8 51.7025H9.1C11.4784 51.7025 13.4 49.7809 13.4 47.4025V17.3025H2.65ZM6.95 43.1025C7.52022 43.1025 8.06708 43.329 8.47028 43.7322C8.87348 44.1354 9.1 44.6823 9.1 45.2525C9.1 45.8227 8.87348 46.3695 8.47028 46.7728C8.06708 47.176 7.52022 47.4025 6.95 47.4025C6.37978 47.4025 5.83292 47.176 5.42972 46.7728C5.02652 46.3695 4.8 45.8227 4.8 45.2525C4.8 44.6823 5.02652 44.1354 5.42972 43.7322C5.83292 43.329 6.37978 43.1025 6.95 43.1025ZM73.6 17.3025V47.4025C73.6 49.7809 75.5216 51.7025 77.9 51.7025H82.2C84.5784 51.7025 86.5 49.7809 86.5 47.4025V19.4525C86.5 18.27 85.5325 17.3025 84.35 17.3025H73.6ZM77.9 45.2525C77.9 44.6823 78.1265 44.1354 78.5297 43.7322C78.9329 43.329 79.4798 43.1025 80.05 43.1025C80.6202 43.1025 81.1671 43.329 81.5703 43.7322C81.9735 44.1354 82.2 44.6823 82.2 45.2525C82.2 45.8227 81.9735 46.3695 81.5703 46.7728C81.1671 47.176 80.6202 47.4025 80.05 47.4025C79.4798 47.4025 78.9329 47.176 78.5297 46.7728C78.1265 46.3695 77.9 45.8227 77.9 45.2525Z" fill="url(#paint0_linear_26_7)"/>
</g>
<defs>
<linearGradient id="paint0_linear_26_7" x1="-8.2694" y1="34.5" x2="122.607" y2="37.0805" gradientUnits="userSpaceOnUse">
<stop stop-color="#26D0CE"/>
<stop offset="1" stop-color="#1A2980"/>
</linearGradient>
<clipPath id="clip0_26_7">
<rect width="86" height="68.8" fill="white" transform="translate(0.5 0.100006)"/>
</clipPath>
</defs>
</svg>
