<svg width="162" height="18" viewBox="0 0 162 18" fill="none" xmlns="http://www.w3.org/2000/svg">
<path d="M6.344 17.192C4.904 17.192 3.728 17.08 2.816 16.856C1.92 16.632 1.264 16.224 0.848 15.632C0.432 15.04 0.224 14.216 0.224 13.16C0.224 12.6 0.272 11.96 0.368 11.24C0.48 10.504 0.64 9.672 0.848 8.744C1.168 7.32 1.48 6.112 1.784 5.12C2.104 4.128 2.456 3.32 2.84 2.696C3.24 2.056 3.72 1.568 4.28 1.232C4.856 0.88 5.56 0.639999 6.392 0.511999C7.24 0.367999 8.264 0.295999 9.464 0.295999C9.96 0.295999 10.48 0.311999 11.024 0.344C11.584 0.375999 12.112 0.423999 12.608 0.487999C13.104 0.535999 13.528 0.599999 13.88 0.68L13.328 3.224C12.848 3.16 12.4 3.112 11.984 3.08C11.568 3.048 11.192 3.024 10.856 3.008C10.536 2.992 10.256 2.984 10.016 2.984C9.168 2.984 8.456 3.016 7.88 3.08C7.304 3.144 6.832 3.28 6.464 3.488C6.112 3.696 5.816 4.008 5.576 4.424C5.336 4.84 5.112 5.4 4.904 6.104C4.712 6.808 4.512 7.688 4.304 8.744C4.128 9.592 3.984 10.328 3.872 10.952C3.76 11.56 3.704 12.072 3.704 12.488C3.704 13.08 3.824 13.52 4.064 13.808C4.32 14.096 4.728 14.288 5.288 14.384C5.864 14.464 6.624 14.504 7.568 14.504C8.096 14.504 8.688 14.48 9.344 14.432C10.016 14.384 10.6 14.328 11.096 14.264L10.52 16.88C10.168 16.944 9.752 17 9.272 17.048C8.792 17.096 8.296 17.128 7.784 17.144C7.288 17.176 6.808 17.192 6.344 17.192ZM20.2625 17.192C19.5745 17.192 18.8385 17.176 18.0545 17.144C17.2865 17.112 16.5345 17.064 15.7985 17C15.0625 16.952 14.3985 16.896 13.8065 16.832L14.3585 14.192C14.9345 14.24 15.5345 14.288 16.1585 14.336C16.7825 14.384 17.3825 14.424 17.9585 14.456C18.5505 14.488 19.0545 14.504 19.4705 14.504C19.9985 14.504 20.4465 14.496 20.8145 14.48C21.1985 14.448 21.5265 14.408 21.7985 14.36C22.0705 14.296 22.3105 14.216 22.5185 14.12C22.6785 14.024 22.8145 13.896 22.9265 13.736C23.0545 13.56 23.1665 13.368 23.2625 13.16C23.3585 12.952 23.4305 12.736 23.4785 12.512C23.5425 12.272 23.5825 12.048 23.5985 11.84C23.6305 11.616 23.6465 11.432 23.6465 11.288C23.6465 11.048 23.5905 10.864 23.4785 10.736C23.3665 10.608 23.1665 10.512 22.8785 10.448C22.5905 10.384 22.1825 10.32 21.6545 10.256L18.0065 9.728C17.0465 9.6 16.3905 9.304 16.0385 8.84C15.6865 8.36 15.5105 7.712 15.5105 6.896C15.5105 6.608 15.5345 6.288 15.5825 5.936C15.6305 5.568 15.6945 5.192 15.7745 4.808C15.9985 3.816 16.3105 3.024 16.7105 2.432C17.1105 1.824 17.5985 1.368 18.1745 1.064C18.7665 0.759999 19.4465 0.559999 20.2145 0.464C20.9985 0.351999 21.8625 0.295999 22.8065 0.295999C23.4945 0.295999 24.1985 0.311999 24.9185 0.344C25.6385 0.375999 26.3185 0.423999 26.9585 0.487999C27.5985 0.552 28.1265 0.631999 28.5425 0.727999L28.0145 3.296C27.5665 3.232 27.0545 3.176 26.4785 3.128C25.9185 3.08 25.3425 3.048 24.7505 3.032C24.1585 3 23.5985 2.984 23.0705 2.984C22.5745 2.984 22.1425 3 21.7745 3.032C21.4225 3.064 21.1185 3.112 20.8625 3.176C20.6065 3.24 20.3825 3.32 20.1905 3.416C19.9985 3.528 19.8305 3.68 19.6865 3.872C19.5425 4.064 19.4305 4.28 19.3505 4.52C19.2705 4.76 19.2065 5 19.1585 5.24C19.1265 5.48 19.1105 5.72 19.1105 5.96C19.1105 6.28 19.2225 6.496 19.4465 6.608C19.6865 6.704 20.1025 6.792 20.6945 6.872L24.2225 7.352C24.7825 7.432 25.2945 7.552 25.7585 7.712C26.2225 7.872 26.5905 8.144 26.8625 8.528C27.1345 8.912 27.2705 9.496 27.2705 10.28C27.2705 10.472 27.2625 10.68 27.2465 10.904C27.2305 11.112 27.1985 11.344 27.1505 11.6C27.1185 11.856 27.0705 12.12 27.0065 12.392C26.7665 13.512 26.4385 14.4 26.0225 15.056C25.6225 15.696 25.1425 16.168 24.5825 16.472C24.0225 16.776 23.3825 16.968 22.6625 17.048C21.9425 17.144 21.1425 17.192 20.2625 17.192ZM29.2769 17L32.8049 0.487999H40.5809C41.7809 0.487999 42.7009 0.624 43.3409 0.896C43.9969 1.152 44.4529 1.528 44.7089 2.024C44.9809 2.504 45.1169 3.088 45.1169 3.776C45.1169 3.984 45.1009 4.208 45.0689 4.448C45.0529 4.672 45.0209 4.912 44.9729 5.168C44.9409 5.424 44.8849 5.688 44.8049 5.96C44.6769 6.568 44.5169 7.12 44.3249 7.616C44.1489 8.096 43.9329 8.52 43.6769 8.888C43.4369 9.24 43.1329 9.544 42.7649 9.8C42.3969 10.056 41.9489 10.264 41.4209 10.424L42.7169 17H39.1889L38.2049 10.832C38.0609 10.832 37.9089 10.832 37.7489 10.832C37.5889 10.832 37.4209 10.832 37.2449 10.832H34.0289L32.7089 17H29.2769ZM34.5569 8.264H38.0369C38.6929 8.264 39.2129 8.216 39.5969 8.12C39.9969 8.024 40.3089 7.88 40.5329 7.688C40.7729 7.496 40.9489 7.24 41.0609 6.92C41.1889 6.584 41.3009 6.184 41.3969 5.72C41.4609 5.448 41.5089 5.2 41.5409 4.976C41.5729 4.752 41.5889 4.552 41.5889 4.376C41.5889 4.088 41.5169 3.856 41.3729 3.68C41.2449 3.488 41.0049 3.352 40.6529 3.272C40.3169 3.176 39.8449 3.128 39.2369 3.128H35.6609L34.5569 8.264ZM44.4541 17L45.0061 14.432C45.8541 14.416 46.5181 14.384 46.9981 14.336C47.4781 14.272 47.8461 14.128 48.1021 13.904C48.3741 13.664 48.5821 13.296 48.7261 12.8C48.8861 12.288 49.0621 11.592 49.2541 10.712L51.4141 0.487999H54.8701L52.8061 10.232C52.5821 11.304 52.3741 12.224 52.1821 12.992C51.9901 13.76 51.7741 14.392 51.5341 14.888C51.3101 15.384 51.0221 15.776 50.6701 16.064C50.3181 16.352 49.8701 16.56 49.3261 16.688C48.7821 16.816 48.1181 16.904 47.3341 16.952C46.5501 16.984 45.5901 17 44.4541 17ZM62.228 17.192C60.708 17.192 59.508 17.08 58.628 16.856C57.748 16.632 57.116 16.248 56.732 15.704C56.348 15.16 56.156 14.416 56.156 13.472C56.156 12.992 56.204 12.432 56.3 11.792C56.396 11.136 56.532 10.416 56.708 9.632L58.628 0.487999H62.06L59.948 10.424C59.836 11 59.74 11.496 59.66 11.912C59.596 12.312 59.564 12.656 59.564 12.944C59.564 13.36 59.652 13.68 59.828 13.904C60.004 14.112 60.3 14.256 60.716 14.336C61.132 14.416 61.692 14.456 62.396 14.456C63.18 14.456 63.796 14.408 64.244 14.312C64.708 14.216 65.068 14.032 65.324 13.76C65.596 13.472 65.812 13.064 65.972 12.536C66.148 11.992 66.332 11.288 66.524 10.424L68.612 0.487999H72.044L70.124 9.632C69.868 10.848 69.62 11.896 69.38 12.776C69.14 13.656 68.852 14.384 68.516 14.96C68.196 15.52 67.764 15.968 67.22 16.304C66.692 16.624 66.028 16.856 65.228 17C64.428 17.128 63.428 17.192 62.228 17.192ZM72.5426 17L76.0706 0.487999H79.6226L84.1826 10.904H84.3506L86.6066 0.487999H89.8706L86.3426 17H83.1026L78.3506 5.912H78.1826L75.8066 17H72.5426ZM96.9299 17.192C95.4899 17.192 94.3139 17.08 93.4019 16.856C92.5059 16.632 91.8499 16.224 91.4339 15.632C91.0179 15.04 90.8099 14.216 90.8099 13.16C90.8099 12.6 90.8579 11.96 90.9539 11.24C91.0659 10.504 91.2259 9.672 91.4339 8.744C91.7539 7.32 92.0659 6.112 92.3699 5.12C92.6899 4.128 93.0419 3.32 93.4259 2.696C93.8259 2.056 94.3059 1.568 94.8659 1.232C95.4419 0.88 96.1459 0.639999 96.9779 0.511999C97.8259 0.367999 98.8499 0.295999 100.05 0.295999C100.546 0.295999 101.066 0.311999 101.61 0.344C102.17 0.375999 102.698 0.423999 103.194 0.487999C103.69 0.535999 104.114 0.599999 104.466 0.68L103.914 3.224C103.434 3.16 102.986 3.112 102.57 3.08C102.154 3.048 101.778 3.024 101.442 3.008C101.122 2.992 100.842 2.984 100.602 2.984C99.7539 2.984 99.0419 3.016 98.4659 3.08C97.8899 3.144 97.4179 3.28 97.0499 3.488C96.6979 3.696 96.4019 4.008 96.1619 4.424C95.9219 4.84 95.6979 5.4 95.4899 6.104C95.2979 6.808 95.0979 7.688 94.8899 8.744C94.7139 9.592 94.5699 10.328 94.4579 10.952C94.3459 11.56 94.2899 12.072 94.2899 12.488C94.2899 13.08 94.4099 13.52 94.6499 13.808C94.9059 14.096 95.3139 14.288 95.8739 14.384C96.4499 14.464 97.2099 14.504 98.1539 14.504C98.6819 14.504 99.2739 14.48 99.9299 14.432C100.602 14.384 101.186 14.328 101.682 14.264L101.106 16.88C100.754 16.944 100.338 17 99.8579 17.048C99.3779 17.096 98.8819 17.128 98.3699 17.144C97.8739 17.176 97.3939 17.192 96.9299 17.192ZM107.824 17L110.752 3.32H105.784L106.384 0.487999H119.752L119.152 3.32H114.184L111.28 17H107.824ZM118.832 17L122.36 0.487999H125.792L122.264 17H118.832ZM133.245 17.192C131.565 17.192 130.253 17.088 129.309 16.88C128.365 16.656 127.693 16.272 127.293 15.728C126.909 15.168 126.717 14.4 126.717 13.424C126.717 12.832 126.781 12.144 126.909 11.36C127.053 10.576 127.229 9.672 127.437 8.648C127.725 7.272 127.989 6.096 128.229 5.12C128.485 4.144 128.789 3.344 129.141 2.72C129.493 2.08 129.949 1.584 130.509 1.232C131.085 0.88 131.821 0.639999 132.717 0.511999C133.613 0.367999 134.725 0.295999 136.053 0.295999C137.733 0.295999 139.037 0.407999 139.965 0.631999C140.909 0.839999 141.573 1.224 141.957 1.784C142.357 2.328 142.557 3.096 142.557 4.088C142.557 4.696 142.493 5.384 142.365 6.152C142.253 6.92 142.085 7.816 141.861 8.84C141.557 10.232 141.269 11.416 140.997 12.392C140.725 13.368 140.413 14.168 140.061 14.792C139.709 15.416 139.253 15.904 138.693 16.256C138.133 16.608 137.413 16.856 136.533 17C135.669 17.128 134.573 17.192 133.245 17.192ZM133.413 14.504C134.133 14.504 134.725 14.48 135.189 14.432C135.653 14.384 136.037 14.272 136.341 14.096C136.661 13.92 136.925 13.624 137.133 13.208C137.341 12.792 137.541 12.224 137.733 11.504C137.925 10.784 138.141 9.864 138.381 8.744C138.605 7.784 138.765 6.968 138.861 6.296C138.973 5.624 139.029 5.072 139.029 4.64C139.029 4.112 138.925 3.736 138.717 3.512C138.509 3.272 138.173 3.128 137.709 3.08C137.245 3.016 136.629 2.984 135.861 2.984C135.141 2.984 134.541 3.008 134.061 3.056C133.597 3.104 133.205 3.216 132.885 3.392C132.581 3.568 132.325 3.864 132.117 4.28C131.909 4.696 131.709 5.264 131.517 5.984C131.325 6.704 131.117 7.624 130.893 8.744C130.749 9.4 130.621 9.992 130.509 10.52C130.413 11.032 130.333 11.48 130.269 11.864C130.221 12.232 130.197 12.568 130.197 12.872C130.197 13.384 130.301 13.76 130.509 14C130.733 14.224 131.077 14.368 131.541 14.432C132.005 14.48 132.629 14.504 133.413 14.504ZM143.886 17L147.414 0.487999H150.966L155.526 10.904H155.694L157.95 0.487999H161.214L157.686 17H154.446L149.694 5.912H149.526L147.15 17H143.886Z" fill="url(#paint0_linear_77_24)"/>
<defs>
<linearGradient id="paint0_linear_77_24" x1="-17.5191" y1="9" x2="228.485" y2="21.4059" gradientUnits="userSpaceOnUse">
<stop stop-color="#26D0CE"/>
<stop offset="1" stop-color="#1A2980"/>
</linearGradient>
</defs>
</svg>
