<svg width="87" height="87" viewBox="0 0 87 87" fill="none" xmlns="http://www.w3.org/2000/svg">
<path d="M43.5001 7.96666C46.7107 7.96666 49.8211 8.38949 52.7809 9.18141L45.1627 16.796C44.5848 17.3763 44.075 18.0207 43.6434 18.7167H43.5001C38.5391 18.7167 33.6895 20.1878 29.5645 22.944C25.4396 25.7002 22.2246 29.6176 20.3261 34.201C18.4276 38.7844 17.9309 43.8278 18.8987 48.6935C19.8666 53.5592 22.2555 58.0286 25.7635 61.5366C29.2715 65.0446 33.7409 67.4335 38.6066 68.4014C43.4723 69.3692 48.5157 68.8725 53.0991 66.974C57.6824 65.0755 61.5999 61.8605 64.3561 57.7355C67.1123 53.6106 68.5834 48.761 68.5834 43.8V43.6567C69.2762 43.2267 69.9152 42.719 70.5005 42.1337L78.1187 34.5192C78.9106 37.479 79.3334 40.5893 79.3334 43.8C79.3334 63.5907 63.2908 79.6333 43.5001 79.6333C23.7093 79.6333 7.66675 63.5907 7.66675 43.8C7.66675 24.0092 23.7093 7.96666 43.5001 7.96666ZM42.0166 25.9442C42.0166 28.9937 41.8661 32.0861 42.0309 35.1319L40.0959 37.0669C39.4303 37.7325 38.9023 38.5227 38.5421 39.3924C38.1818 40.2621 37.9964 41.1942 37.9964 42.1355C37.9964 43.0769 38.1818 44.009 38.5421 44.8787C38.9023 45.7483 39.4303 46.5385 40.0959 47.2042C40.7615 47.8698 41.5517 48.3978 42.4214 48.758C43.2911 49.1182 44.2232 49.3036 45.1645 49.3036C46.1059 49.3036 47.038 49.1182 47.9077 48.758C48.7773 48.3978 49.5675 47.8698 50.2332 47.2042L52.1682 45.2692C55.214 45.434 58.3028 45.2835 61.3558 45.2835C61.0728 48.6889 59.8218 51.9423 57.7504 54.66C55.679 57.3778 52.8736 59.4465 49.6651 60.6222C46.4566 61.7979 42.9788 62.0315 39.6418 61.2955C36.3049 60.5595 33.248 58.8846 30.8317 56.4683C28.4155 54.0521 26.7406 50.9952 26.0046 47.6582C25.2686 44.3213 25.5022 40.8435 26.6779 37.635C27.8536 34.4265 29.9223 31.6211 32.64 29.5497C35.3578 27.4783 38.6112 26.2273 42.0166 25.9442ZM66.8061 8.42174C67.4601 8.69293 68.0192 9.1518 68.4127 9.74044C68.8062 10.3291 69.0165 11.0211 69.017 11.7292V18.2867H75.5709C76.2795 18.2868 76.9722 18.4971 77.5613 18.8908C78.1504 19.2846 78.6096 19.8441 78.8808 20.4988C79.1519 21.1535 79.2229 21.8739 79.0847 22.5689C78.9465 23.2639 78.6053 23.9023 78.1043 24.4034L65.4301 37.0633C64.7582 37.7354 63.8469 38.113 62.8967 38.1132H54.2501L47.6997 44.6672C47.0274 45.3395 46.1154 45.7173 45.1645 45.7173C44.2137 45.7173 43.3017 45.3395 42.6293 44.6672C41.957 43.9948 41.5792 43.0828 41.5792 42.132C41.5792 41.1811 41.957 40.2691 42.6293 39.5967L49.1833 33.05V24.3998C49.1829 23.9287 49.2754 23.4621 49.4556 23.0268C49.6357 22.5914 49.9 22.1959 50.2332 21.8628L62.9002 9.19574C63.4014 8.69432 64.0399 8.35279 64.7352 8.21438C65.4305 8.07597 66.1511 8.14688 66.8061 8.41816" fill="url(#paint0_linear_263_275)"/>
<defs>
<linearGradient id="paint0_linear_263_275" x1="0.358918" y1="43.8" x2="109.449" y2="45.0904" gradientUnits="userSpaceOnUse">
<stop stop-color="#26D0CE"/>
<stop offset="1" stop-color="#1A2980"/>
</linearGradient>
</defs>
</svg>
